<svg version="1.1" viewBox="0.0 0.0 492.49343832021 495.249343832021" fill="none" stroke="none" stroke-linecap="square" stroke-miterlimit="10" xmlns:xlink="http://www.w3.org/1999/xlink" xmlns="http://www.w3.org/2000/svg"><clipPath id="p.0"><path d="m0 0l492.49344 0l0 495.24933l-492.49344 0l0 -495.24933z" clip-rule="nonzero"/></clipPath><g clip-path="url(#p.0)"><path fill="#000000" fill-opacity="0.0" d="m0 0l492.49344 0l0 495.24933l-492.49344 0z" fill-rule="evenodd"/><path fill="#ffffff" d="m90.908134 88.81102l313.35434 0l0 315.81104l-313.35434 0z" fill-rule="evenodd"/><path fill="#8d33e5" d="m420.49136 405.9033l0 0c-43.904297 48.93158 -106.71292 77.10425 -172.80115 77.50961c-66.08823 0.405365 -129.24426 -26.99469 -173.75693 -75.38391z" fill-rule="evenodd"/><path fill="#00c4b3" d="m402.5175 72.66349l0 0c48.93155 43.90429 77.10422 106.71291 77.50958 172.80115c0.405365 66.08823 -26.99469 129.24426 -75.38391 173.75693z" fill-rule="evenodd"/><path fill="#67b2e7" d="m72.66875 89.096695l0 0c43.90428 -48.93155 106.712906 -77.104225 172.80113 -77.50959c66.08823 -0.40536594 129.24426 26.994678 173.75693 75.3839z" fill-rule="evenodd"/><path fill="#f7a800" d="m89.09932 421.15277l0 0c-48.93155 -43.904266 -77.104225 -106.71289 -77.50959 -172.80113c-0.40536594 -66.08824 26.994678 -129.24426 75.3839 -173.75693z" fill-rule="evenodd"/><path fill="#000000" fill-opacity="0.0" d="m143.87401 247.62466l0 0c0 -56.90706 46.13231 -103.03937 103.03938 -103.03937l0 0c27.327728 0 53.536194 10.855911 72.85983 30.179535c19.323639 19.323639 30.179535 45.532104 30.179535 72.85983l0 0c0 56.907074 -46.132294 103.03937 -103.03937 103.03937l0 0c-56.907074 0 -103.03938 -46.132294 -103.03938 -103.03937z" fill-rule="evenodd"/><path stroke="#000000" stroke-width="24.0" stroke-linejoin="round" stroke-linecap="butt" d="m143.87401 247.62466l0 0c0 -56.90706 46.13231 -103.03937 103.03938 -103.03937l0 0c27.327728 0 53.536194 10.855911 72.85983 30.179535c19.323639 19.323639 30.179535 45.532104 30.179535 72.85983l0 0c0 56.907074 -46.132294 103.03937 -103.03937 103.03937l0 0c-56.907074 0 -103.03938 -46.132294 -103.03938 -103.03937z" fill-rule="evenodd"/><path fill="#000000" fill-opacity="0.0" d="m246.91339 350.66403l0 127.14963" fill-rule="evenodd"/><path stroke="#000000" stroke-width="24.0" stroke-linejoin="round" stroke-linecap="butt" d="m246.91339 350.66403l0 127.14963" fill-rule="evenodd"/><path fill="#000000" fill-opacity="0.0" d="m83.632965 410.19382l326.55118 0" fill-rule="evenodd"/><path stroke="#000000" stroke-width="24.0" stroke-linejoin="round" stroke-linecap="butt" d="m83.632965 410.19382l326.55118 0" fill-rule="evenodd"/><path fill="#000000" fill-opacity="0.0" d="m83.632965 410.19382l0 -326.5512" fill-rule="evenodd"/><path stroke="#000000" stroke-width="24.0" stroke-linejoin="round" stroke-linecap="butt" d="m83.632965 410.19382l0 -326.5512" fill-rule="evenodd"/><path fill="#000000" fill-opacity="0.0" d="m83.632965 83.632965l326.55118 0" fill-rule="evenodd"/><path stroke="#000000" stroke-width="24.0" stroke-linejoin="round" stroke-linecap="butt" d="m83.632965 83.632965l326.55118 0" fill-rule="evenodd"/><path fill="#000000" fill-opacity="0.0" d="m410.19382 83.632965l0 326.55118" fill-rule="evenodd"/><path stroke="#000000" stroke-width="24.0" stroke-linejoin="round" stroke-linecap="butt" d="m410.19382 83.632965l0 326.55118" fill-rule="evenodd"/><path fill="#000000" fill-opacity="0.0" d="m16.0 246.91339l0 0c0 -127.529945 103.383446 -230.91339 230.91339 -230.91339l0 0c61.242035 0 119.97577 24.328304 163.28043 67.632965c43.304657 43.304657 67.632965 102.038376 67.632965 163.28043l0 0c0 127.52994 -103.38345 230.91339 -230.91339 230.91339l0 0c-127.529945 0 -230.91339 -103.38345 -230.91339 -230.91339z" fill-rule="evenodd"/><path stroke="#000000" stroke-width="24.0" stroke-linejoin="round" stroke-linecap="butt" d="m16.0 246.91339l0 0c0 -127.529945 103.383446 -230.91339 230.91339 -230.91339l0 0c61.242035 0 119.97577 24.328304 163.28043 67.632965c43.304657 43.304657 67.632965 102.038376 67.632965 163.28043l0 0c0 127.52994 -103.38345 230.91339 -230.91339 230.91339l0 0c-127.529945 0 -230.91339 -103.38345 -230.91339 -230.91339z" fill-rule="evenodd"/></g></svg>